PathFileType	4	(X/Y/Z)	C:\Users\avatar\Documents\avatar\mocap1\10002-20130626160334-Unnamed.trc
DataRate	CameraRate	NumFrames	NumMarkers	Units	OrigDataRate	OrigDataStartFrame	OrigNumFrames
400.00	400.00	       108	0	mm	400.00	589	       882
Frame#	Time	
		

589	1.470				-1099.91760	619.91620	-747.35754	-865.50226	714.49890	-192.72096				-770.49213	1237.21777	-188.95718	312.43262	521.63928	-170.24181	-1157.93152	599.96814	-742.88458	
590	1.472	-1172.31543	605.78174	-782.81165				-867.74249	718.78088	-189.97360							311.32452	519.92249	-172.20287	
591	1.475				-1132.55408	621.35620	-797.05444	-870.60461	722.53271	-187.55865	
592	1.477				-1146.10132	624.30933	-803.28674	-873.15601	726.47113	-185.13597	
593	1.480				-1167.79456	627.04321	-811.57263	-875.76788	730.19012	-182.96051	
594	1.482	-1172.54492	603.20636	-861.48761				-877.86237	733.99164	-180.75797	
595	1.485	-1179.66882	606.97516	-863.56396				-879.86810	737.52454	-178.83585	
596	1.487	-1202.39600	608.85071	-866.44580				-882.13281	741.45068	-176.89427	
597	1.490				72.70288	74.06737	-5.03542	-884.38672	744.75775	-175.34123	
598	1.492	70.16446	72.92252	-8.24560				-886.35492	748.57532	-173.91864	
599	1.495				-1258.85559	604.12115	-934.30908	-887.39343	752.25085	-172.50916	-1254.84619	630.59906	-952.18744	
600	1.497	-498.08524	608.69263	202.49104				-888.78955	755.93237	-171.25690	-1265.39514	633.30939	-958.89758	
601	1.500				-1338.34802	618.43457	-996.82751	-890.43231	759.66016	-170.03223				-1319.33069	605.97644	-992.48169	
602	1.503							-891.18396	763.37628	-169.30666				-1298.06567	632.14984	-1008.82928	
603	1.505							-892.16711	766.99731	-168.27110				-1308.54773	634.97687	-1014.96619	
604	1.508							-893.14581	770.51953	-167.51535				-1329.60266	637.08002	-1022.30157	
605	1.510							-893.31860	774.35632	-166.67563	
606	1.513	-1343.50439	613.34302	-1074.13586	-226.33502	154.31326	97.71629	-893.12402	779.10120	-164.86351	
607	1.515	-1364.32043	615.88928	-1076.40930	-224.95819	154.36937	97.05090	-893.86029	781.58179	-164.60249	
608	1.518				-194.62265	158.56787	93.30328	-894.48853	783.85718	-163.54195	-1430.85095	634.17297	-1114.31091	
609	1.520	-192.91016	158.71524	92.54834				-895.32043	786.06238	-163.27184	
610	1.523				-1423.06970	611.75647	-1145.49670	-893.75153	791.62354	-161.95781	-191.90999	158.71819	91.29630	
611	1.525	-190.79463	158.93565	90.57040				-893.96094	795.36200	-161.05040				-1471.58142	608.44263	-1163.13928	-1517.31812	617.04144	-1165.56592	
612	1.528				-189.09973	159.26494	89.54176	-893.36981	798.81592	-159.99908							-1501.69775	611.16370	-1198.87195	
613	1.530							-892.48621	802.05402	-159.38562							-1459.82166	636.19397	-1220.79175	
614	1.533	-1471.39001	637.17285	-1227.01563				-892.69446	805.03955	-158.63652	
615	1.535				-1490.15173	638.98932	-1232.95984	-891.31445	808.25098	-157.96217	177.25404	1444.03162	-336.45526	
616	1.538							-890.70386	811.33301	-157.26988	174.92990	1443.27795	-337.53177	
617	1.540	-1511.17273	611.41547	-1286.56531				-888.71954	814.98840	-155.60364	
618	1.543	-1526.70886	614.09241	-1286.86987				-887.71124	817.76007	-155.37756	
619	1.545				-1596.71558	634.21747	-1321.50635	-887.41907	820.27924	-154.84358	
620	1.548							-886.43640	822.88342	-154.67780	
621	1.550	252.66966	1441.23096	-348.77408				-886.23511	825.05664	-154.80928	
622	1.553				-1649.45496	610.00018	-1369.11890	-886.55902	827.94836	-153.36633	251.20215	1440.48865	-350.01614	
623	1.555	-625.21759	1247.00818	-325.58160	-1666.15125	606.69427	-1407.24487	-884.87915	830.15460	-153.63943	253.98894	1444.68140	-354.50516	
624	1.558							-883.45154	832.08783	-153.85258	251.15085	1442.48792	-355.35965	-618.80011	1253.11938	-324.70813	
625	1.560	-1631.34937	631.63879	-1436.30896				-882.33771	834.46387	-153.57045	255.82123	1449.56006	-361.28568	
626	1.563							-881.52820	836.33160	-153.56166	
627	1.565	7.00695	1046.31714	-427.55975				-879.87592	838.66986	-153.41437	
628	1.567				245.17009	1439.55383	-361.19089	-879.28455	840.33374	-153.25632	
629	1.570				240.83470	1434.97974	-360.63086	-877.60986	842.60822	-153.13159	
630	1.572	-1760.84827	626.24878	-1528.30273	238.97438	1434.14099	-361.85687	-876.35724	844.00372	-152.96887	
631	1.575				237.23758	1433.38770	-363.11377	-875.06213	845.90881	-152.67397	
632	1.577				239.06252	1436.47949	-367.08578	-873.60370	847.69635	-152.60574	
633	1.580				235.29904	1433.14124	-367.14319	-871.81470	849.49219	-152.67963	
634	1.582				233.12996	1431.90417	-368.23917	-870.54095	850.93964	-152.47926	
635	1.585				232.07312	1431.20569	-369.61798	-869.14838	852.28766	-152.55414	
636	1.587				230.46326	1431.08154	-371.00055	-867.47101	854.25189	-152.51859	
637	1.590	1100.70679	1325.55786	193.94974	229.71756	1431.55786	-372.85718	-866.12079	855.55945	-152.59734	
638	1.592	1093.78760	1326.01379	192.28584	226.22176	1427.88245	-372.42230	-864.48120	856.93207	-152.39404	
639	1.595				224.17068	1427.16907	-373.93240	-861.89313	858.59979	-152.43700	
640	1.597				221.65506	1424.94495	-374.36557	-860.29059	859.77252	-152.35152	
641	1.600	-3.95928	222.65273	-161.53612				-858.74817	861.04132	-152.27440	
642	1.602				775.69293	1524.41406	362.93002	-856.79803	862.73718	-152.16000	-6.83608	221.30980	-167.48936	
643	1.605							-855.15460	863.85687	-152.28302	-8.54034	221.72832	-172.95302	
644	1.607							-853.25128	865.16418	-152.28139	-12.08756	218.56506	-178.76378	
645	1.610							-851.20447	866.48181	-151.96815	-15.12406	216.31714	-184.78011	
646	1.612							-849.96625	867.34814	-152.28944	
647	1.615							-848.54376	868.22791	-152.41940	
648	1.617							-846.62030	869.24597	-152.25822	
649	1.620							-844.80505	870.09662	-152.14983	
650	1.622							-843.60638	870.66852	-152.58588	
651	1.625							-842.68353	871.12982	-152.86913	
652	1.628							-841.09985	871.65186	-153.06027	
653	1.630							-840.09668	871.85925	-153.25528	
654	1.633							-839.08563	871.98480	-153.64407	
655	1.635	68.59505	1366.56470	-21.59966				-838.17035	872.07813	-153.94852	
656	1.638							-837.01563	872.10596	-154.01714	
657	1.640	374.73645	941.56342	-545.29358				-836.02423	872.22229	-154.47229	
658	1.643				372.61050	940.97559	-548.48535	-835.14362	872.03339	-155.08113	75.88412	1367.85889	-20.65512	
659	1.645							-834.08392	871.95197	-155.44244	77.25546	1367.97510	-20.53046	
660	1.648	280.39362	1054.46765	-512.41211				-833.23706	871.74091	-155.66467	
661	1.650	279.40280	1054.18213	-512.76764				-832.07666	871.55664	-156.02509	
662	1.653	277.51205	1052.83826	-511.54956				-831.72083	870.84924	-156.71248	
663	1.655	277.21161	1052.41394	-511.14224				-830.89813	870.43805	-157.24669	
664	1.658	277.01572	1051.92725	-510.69855	-591.63043	1354.08936	-160.73160	-829.77344	870.03992	-157.74358	
665	1.660				-591.20752	1354.37708	-161.04210	-829.34711	869.70453	-158.09727	
666	1.663	259.97458	1025.84753	-501.10703	-591.12488	1354.48193	-161.09976	-828.27539	869.13263	-158.75522	
667	1.665				-591.08868	1354.71838	-161.91954	-827.35486	868.69867	-159.12970	
668	1.668	-634.00879	1379.07092	-294.77142				-827.10382	868.18982	-159.73399	-111.17490	144.08005	-485.39905	
669	1.670				255.24657	1018.35498	-497.30051	-826.07349	867.80383	-160.51451				-635.45355	1378.92932	-296.08704	
670	1.673	253.90706	1016.07080	-496.08517				-825.61298	867.22992	-160.96896	-589.57355	1355.70911	-162.26984	-634.83612	1378.31750	-297.22800	
671	1.675				253.52419	1015.52032	-495.68594	-824.14569	866.96008	-161.71953				-633.28351	1377.85132	-296.54645	
672	1.678	-589.89856	1355.10144	-163.09770				-823.44995	866.61865	-162.15030	
673	1.680							-822.95117	865.98596	-162.75188	
674	1.683	-415.54459	-12.94848	-58.04162				-821.58679	865.64856	-163.22928	
675	1.685				-415.64011	-13.52878	-58.04810	-821.21240	865.16345	-163.79311	-853.35150	1345.33728	-224.68138	
676	1.688	-416.09784	-14.46700	-58.13580				-820.21552	864.60950	-164.56009	-851.08960	1345.49744	-225.89540	
677	1.690				-416.43933	-15.02851	-58.28956	-819.54840	864.16437	-165.26154	
678	1.692	-1057.15588	-1319.12598	539.22620	-416.75940	-15.53856	-58.53100	-818.30383	863.84692	-165.85405	
679	1.695				-417.02771	-16.26510	-58.45492	-817.48309	863.41565	-166.62495	-846.62708	1343.68982	-228.89676	
680	1.697				-417.30713	-16.92480	-58.35896	-817.55597	862.63593	-167.44751	
681	1.700	29.59167	1120.02881	-490.57715	-417.30539	-17.56010	-58.32767	-816.14410	862.22681	-168.00452	
682	1.702				-417.58575	-17.51149	-58.11399	-816.14844	861.28613	-168.99895	18.28116	1118.17603	-487.87311	
683	1.705	-642.53088	1375.74438	-306.07477	-417.79388	-17.95816	-57.95314	-815.66614	860.33673	-169.90115				5.73945	1115.62781	-484.94067	
684	1.707				-417.98776	-18.45334	-57.80789	-815.26227	859.47247	-170.61525	-642.23590	1375.56189	-306.73898	-4.54088	1113.97375	-482.41898	-1821.06836	-719.28943	127.12994	-1393.39734	660.47003	285.78156	
685	1.710				-417.99619	-18.67527	-57.82255	-814.38361	858.75531	-171.70680	
686	1.712				-418.06744	-18.81771	-57.60748	-814.00812	858.16498	-172.80231	
687	1.715	-828.56006	1340.87744	-233.28885	-418.16290	-19.11955	-57.61106	-814.02667	857.07831	-173.58350	
688	1.717				-418.13528	-19.52670	-57.73343	-813.95068	855.74017	-174.80832	-815.79895	1340.08923	-237.05760	
689	1.720	-1292.87866	-906.31317	-28.49846	-418.52118	-19.90036	-57.77280	-813.44629	855.01013	-175.57841	-816.24042	1339.71118	-237.07433	
690	1.722				-418.84818	-20.17114	-57.88568	-813.15906	853.92096	-176.72766	-797.12238	1339.69604	-243.21342	-1296.33643	-908.47821	-28.92838	
691	1.725				-418.95313	-20.45930	-57.86940	-813.46692	852.87769	-177.76237	
692	1.727	-738.99603	-125.12863	-299.80392	-418.84113	-20.50880	-57.97129	-813.48004	851.82532	-178.96637	-812.00787	1339.40588	-244.33105	
693	1.730				-418.85706	-20.63091	-57.99046	-812.67273	850.79932	-180.08737	-824.74384	1339.04956	-246.08228	-740.34515	-122.39620	-305.39734	
694	1.732	-741.09216	-121.33135	-310.61166	-418.75595	-20.91610	-58.09505	-813.31958	849.72290	-181.27080	-823.43011	1338.57178	-247.94395	
695	1.735				-418.48868	-21.22390	-57.97865	-812.57483	848.79138	-182.34300	
696	1.737				-418.41238	-21.71647	-58.06898	-812.96368	847.67731	-183.85878	
